<?xml version="1.0" encoding="UTF-8"?>
<!DOCTYPE svg PUBLIC "-//W3C//DTD SVG 1.1//EN" "http://www.w3.org/Graphics/SVG/1.1/DTD/svg11.dtd">
<svg xmlns="http://www.w3.org/2000/svg" version="1.1" width="464px" height="106px" style="shape-rendering:geometricPrecision; text-rendering:geometricPrecision; image-rendering:optimizeQuality; fill-rule:evenodd; clip-rule:evenodd" xmlns:xlink="http://www.w3.org/1999/xlink">
<g><path style="opacity:1" fill="#76cb95" d="M 114.5,3.5 C 114.5,3.83333 114.5,4.16667 114.5,4.5C 79.4984,4.33335 44.4984,4.50002 9.5,5C 7.93662,6.94728 5.93662,8.11395 3.5,8.5C 4.59495,5.26516 6.92829,3.43182 10.5,3C 45.2381,2.17416 79.9048,2.34082 114.5,3.5 Z"/></g>
<g><path style="opacity:1" fill="#33c26c" d="M 114.5,4.5 C 117.539,6.08579 119.705,8.41913 121,11.5C 121.667,38.8333 121.667,66.1667 121,93.5C 119.331,95.1691 118.498,97.1691 118.5,99.5C 81.8507,100.461 45.184,100.795 8.5,100.5C 7.18766,99.1877 5.85433,97.8543 4.5,96.5C 3.50017,67.1742 3.16684,37.8409 3.5,8.5C 5.93662,8.11395 7.93662,6.94728 9.5,5C 44.4984,4.50002 79.4984,4.33335 114.5,4.5 Z M 47.5,35.5 C 51.548,36.3579 55.2147,38.0245 58.5,40.5C 63.4274,49.3067 63.7607,58.3067 59.5,67.5C 57.8333,68.5 56.5,69.8333 55.5,71.5C 47.6911,73.8056 39.6911,74.8056 31.5,74.5C 31.5,61.5 31.5,48.5 31.5,35.5C 36.8333,35.5 42.1667,35.5 47.5,35.5 Z M 68.5,35.5 C 78.1667,35.5 87.8333,35.5 97.5,35.5C 97.5,36.5 97.5,37.5 97.5,38.5C 97.1667,38.5 96.8333,38.5 96.5,38.5C 92.8333,38.5 89.1667,38.5 85.5,38.5C 85.5,49.5 85.5,60.5 85.5,71.5C 85.5,72.1667 85.5,72.8333 85.5,73.5C 84.1779,73.33 83.0113,73.6634 82,74.5C 81.5001,62.5046 81.3335,50.5046 81.5,38.5C 76.8017,38.5899 72.4684,38.2566 68.5,37.5C 68.5,36.8333 68.5,36.1667 68.5,35.5 Z"/></g>
<g><path style="opacity:0.988" fill="#202c38" d="M 281.5,69.5 C 282.183,71.1765 283.517,71.8432 285.5,71.5C 285.5,72.5 285.5,73.5 285.5,74.5C 283.5,74.5 281.5,74.5 279.5,74.5C 277.088,74.3059 276.088,72.9726 276.5,70.5C 276.5,57.8333 276.5,45.1667 276.5,32.5C 277.833,32.5 279.167,32.5 280.5,32.5C 280.171,45.0113 280.505,57.3446 281.5,69.5 Z"/></g>
<g><path style="opacity:0.129" fill="#d0fde8" d="M 68.5,35.5 C 78.3194,34.506 88.3194,34.1726 98.5,34.5C 98.7678,36.099 98.4345,37.4324 97.5,38.5C 97.5,37.5 97.5,36.5 97.5,35.5C 87.8333,35.5 78.1667,35.5 68.5,35.5 Z"/></g>
<g><path style="opacity:0.999" fill="#1d2c36" d="M 297.5,69.5 C 298.335,70.9432 299.668,71.9432 301.5,72.5C 299.581,72.6137 297.581,73.2804 295.5,74.5C 293.273,73.5994 292.273,71.9328 292.5,69.5C 292.5,57.1667 292.5,44.8333 292.5,32.5C 293.833,32.5 295.167,32.5 296.5,32.5C 296.171,45.0113 296.505,57.3446 297.5,69.5 Z"/></g>
<g><path style="opacity:1" fill="#28333c" d="M 336.5,34.5 C 346.167,34.5 355.833,34.5 365.5,34.5C 365.5,35.8333 365.5,37.1667 365.5,38.5C 361.298,38.1832 357.298,38.5166 353.5,39.5C 353.5,51.1667 353.5,62.8333 353.5,74.5C 351.833,74.5 350.167,74.5 348.5,74.5C 348.5,62.8333 348.5,51.1667 348.5,39.5C 344.702,38.5166 340.702,38.1832 336.5,38.5C 336.5,37.1667 336.5,35.8333 336.5,34.5 Z"/></g>
<g><path style="opacity:1" fill="#69c38c" d="M 31.5,34.5 C 37.3188,33.3475 43.3188,33.1808 49.5,34C 52.3117,35.5489 55.3117,36.3822 58.5,36.5C 58.5,37.8333 58.5,39.1667 58.5,40.5C 55.2147,38.0245 51.548,36.3579 47.5,35.5C 42.3595,34.5119 37.0262,34.1786 31.5,34.5 Z"/></g>
<g><path style="opacity:0.008" fill="#bfc3c5" d="M 162.5,38.5 C 163.833,38.5 164.5,39.1667 164.5,40.5C 163.5,40.1667 162.833,39.5 162.5,38.5 Z"/></g>
<g><path style="opacity:0.11" fill="#e3ecf3" d="M 336.5,34.5 C 336.5,35.8333 336.5,37.1667 336.5,38.5C 340.702,38.1832 344.702,38.5166 348.5,39.5C 344.167,39.5 339.833,39.5 335.5,39.5C 335.216,37.5853 335.549,35.9187 336.5,34.5 Z"/></g>
<g><path style="opacity:0.11" fill="#dfe7ef" d="M 365.5,34.5 C 366.451,35.9187 366.784,37.5853 366.5,39.5C 362.167,39.5 357.833,39.5 353.5,39.5C 357.298,38.5166 361.298,38.1832 365.5,38.5C 365.5,37.1667 365.5,35.8333 365.5,34.5 Z"/></g>
<g><path style="opacity:0.078" fill="#dbdfe6" d="M 281.5,69.5 C 280.505,57.3446 280.171,45.0113 280.5,32.5C 279.167,32.5 277.833,32.5 276.5,32.5C 276.5,45.1667 276.5,57.8333 276.5,70.5C 275.505,57.6774 275.171,44.6774 275.5,31.5C 277.5,31.5 279.5,31.5 281.5,31.5C 281.5,44.1667 281.5,56.8333 281.5,69.5 Z"/></g>
<g><path style="opacity:1" fill="#36c26d" d="M 50.5,39.5 C 54.9734,40.7588 57.3067,43.7588 57.5,48.5C 57.7827,54.8044 56.7827,60.8044 54.5,66.5C 52.0274,66.0882 50.6941,67.0882 50.5,69.5C 45.8333,69.5 41.1667,69.5 36.5,69.5C 36.5,59.8333 36.5,50.1667 36.5,40.5C 41.1191,39.6864 45.7858,39.3531 50.5,39.5 Z"/></g>
<g><path style="opacity:1" fill="#1d2a34" d="M 136.5,35.5 C 139.898,35.1796 143.232,35.513 146.5,36.5C 146.863,37.1835 147.196,37.8501 147.5,38.5C 145.167,38.5 142.833,38.5 140.5,38.5C 140.172,49.3464 140.506,60.0131 141.5,70.5C 144.167,70.5 146.833,70.5 149.5,70.5C 150.833,70.5 152.167,70.5 153.5,70.5C 153.567,71.9587 153.234,73.2921 152.5,74.5C 147.167,74.5 141.833,74.5 136.5,74.5C 136.5,61.5 136.5,48.5 136.5,35.5 Z"/></g>
<g><path style="opacity:0.724" fill="#757e87" d="M 147.5,38.5 C 150.059,38.1984 152.393,38.5318 154.5,39.5C 150.167,39.5 145.833,39.5 141.5,39.5C 141.5,49.8333 141.5,60.1667 141.5,70.5C 140.506,60.0131 140.172,49.3464 140.5,38.5C 142.833,38.5 145.167,38.5 147.5,38.5 Z"/></g>
<g><path style="opacity:0.298" fill="#b1b8bf" d="M 165.5,41.5 C 166.906,41.9731 167.573,42.9731 167.5,44.5C 166.094,44.0269 165.427,43.0269 165.5,41.5 Z"/></g>
<g><path style="opacity:1" fill="#93cda5" d="M 50.5,39.5 C 45.7858,39.3531 41.1191,39.6864 36.5,40.5C 36.5,50.1667 36.5,59.8333 36.5,69.5C 41.1667,69.5 45.8333,69.5 50.5,69.5C 45.4845,71.2694 40.3179,71.6027 35,70.5C 34.5002,59.8385 34.3335,49.1719 34.5,38.5C 40.0262,38.1786 45.3595,38.5119 50.5,39.5 Z"/></g>
<g><path style="opacity:0.918" fill="#6ab889" d="M 96.5,38.5 C 93.3752,39.4794 90.0419,39.8128 86.5,39.5C 86.8278,50.3464 86.4944,61.0131 85.5,71.5C 85.5,60.5 85.5,49.5 85.5,38.5C 89.1667,38.5 92.8333,38.5 96.5,38.5 Z"/></g>
<g><path style="opacity:0.998" fill="#6d757c" d="M 183.5,44.5 C 186.64,43.3592 189.973,43.1925 193.5,44C 195.544,44.4983 196.878,45.665 197.5,47.5C 195.678,46.5714 194.345,47.2381 193.5,49.5C 190.946,48.612 188.279,48.2786 185.5,48.5C 187.969,47.6829 190.635,47.1829 193.5,47C 190.649,44.7518 187.315,43.9185 183.5,44.5 Z"/></g>
<g><path style="opacity:0.224" fill="#d1d6db" d="M 209.5,44.5 C 210.919,43.5489 212.585,43.2155 214.5,43.5C 214.232,45.099 214.566,46.4324 215.5,47.5C 215.5,47.8333 215.5,48.1667 215.5,48.5C 214.883,48.6107 214.383,48.944 214,49.5C 213.506,47.8659 213.34,46.1992 213.5,44.5C 212.167,44.5 210.833,44.5 209.5,44.5 Z"/></g>
<g><path style="opacity:1" fill="#37424b" d="M 261.5,44.5 C 261.5,45.5 261.5,46.5 261.5,47.5C 258.287,47.19 255.287,47.5233 252.5,48.5C 252.167,48.5 251.833,48.5 251.5,48.5C 249.856,48.1898 248.856,47.1898 248.5,45.5C 252.581,43.2605 256.915,42.9272 261.5,44.5 Z"/></g>
<g><path style="opacity:1" fill="#394148" d="M 183.5,44.5 C 187.315,43.9185 190.649,44.7518 193.5,47C 190.635,47.1829 187.969,47.6829 185.5,48.5C 183.246,49.4151 181.246,50.7484 179.5,52.5C 175.588,50.4469 175.588,48.2802 179.5,46C 180.745,45.2086 182.078,44.7086 183.5,44.5 Z"/></g>
<g><path style="opacity:1" fill="#5a656f" d="M 261.5,44.5 C 264.908,45.5778 266.908,47.9111 267.5,51.5C 266.288,50.7701 265.288,49.7701 264.5,48.5C 263.534,50.396 263.201,52.396 263.5,54.5C 261.815,49.1906 258.148,47.1906 252.5,48.5C 255.287,47.5233 258.287,47.19 261.5,47.5C 261.5,46.5 261.5,45.5 261.5,44.5 Z"/></g>
<g><path style="opacity:0.986" fill="#4c565e" d="M 328.5,48.5 C 326.07,45.8321 324.737,46.4988 324.5,50.5C 323.012,49.0615 321.178,48.3948 319,48.5C 315.225,49.3826 311.725,50.5492 308.5,52C 306.017,49.2041 306.683,47.0374 310.5,45.5C 315.006,43.616 319.673,43.116 324.5,44C 326.751,44.7475 328.084,46.2475 328.5,48.5 Z"/></g>
<g><path style="opacity:1" fill="#626c76" d="M 389.5,44.5 C 391.795,45.1355 393.461,46.4689 394.5,48.5C 392.528,47.4833 391.195,48.15 390.5,50.5C 387.418,48.819 384.085,48.1524 380.5,48.5C 382.631,47.6862 384.964,47.1862 387.5,47C 388.756,46.5831 389.423,45.7498 389.5,44.5 Z"/></g>
<g><path style="opacity:0.286" fill="#c4f5d6" d="M 31.5,34.5 C 37.0262,34.1786 42.3595,34.5119 47.5,35.5C 42.1667,35.5 36.8333,35.5 31.5,35.5C 31.5,48.5 31.5,61.5 31.5,74.5C 31.1667,74.5 30.8333,74.5 30.5,74.5C 30.1711,60.9895 30.5044,47.6562 31.5,34.5 Z"/></g>
<g><path style="opacity:0.991" fill="#6e7479" d="M 216.5,46.5 C 219.5,47.1667 222.5,47.8333 225.5,48.5C 221.18,47.7494 217.847,49.0827 215.5,52.5C 215.5,51.1667 215.5,49.8333 215.5,48.5C 215.5,48.1667 215.5,47.8333 215.5,47.5C 215.5,46.8333 215.833,46.5 216.5,46.5 Z"/></g>
<g><path style="opacity:1" fill="#38414a" d="M 389.5,44.5 C 389.423,45.7498 388.756,46.5831 387.5,47C 384.964,47.1862 382.631,47.6862 380.5,48.5C 379.71,49.4013 378.71,50.0679 377.5,50.5C 375.983,50.5106 374.816,51.1772 374,52.5C 373.616,50.8034 373.782,49.1368 374.5,47.5C 375.749,45.8639 377.416,44.6972 379.5,44C 383.027,43.1925 386.36,43.3592 389.5,44.5 Z"/></g>
<g><path style="opacity:0.473" fill="#98d7b2" d="M 68.5,37.5 C 72.4684,38.2566 76.8017,38.5899 81.5,38.5C 81.3335,50.5046 81.5001,62.5046 82,74.5C 83.0113,73.6634 84.1779,73.33 85.5,73.5C 84.3646,75.2132 82.698,75.8799 80.5,75.5C 80.6665,63.8286 80.4999,52.1619 80,40.5C 75.7857,40.1734 71.9524,39.1734 68.5,37.5 Z"/></g>
<g><path style="opacity:0.122" fill="#d3d8e3" d="M 297.5,69.5 C 296.505,57.3446 296.171,45.0113 296.5,32.5C 295.167,32.5 293.833,32.5 292.5,32.5C 292.5,44.8333 292.5,57.1667 292.5,69.5C 291.505,57.011 291.171,44.3443 291.5,31.5C 293.5,31.5 295.5,31.5 297.5,31.5C 297.5,44.1667 297.5,56.8333 297.5,69.5 Z"/></g>
<g><path style="opacity:1" fill="#65c58b" d="M 58.5,40.5 C 60.4525,41.6258 61.9525,43.2925 63,45.5C 65.3107,52.6536 64.9773,59.6536 62,66.5C 61.3292,67.2524 60.4959,67.5858 59.5,67.5C 63.7607,58.3067 63.4274,49.3067 58.5,40.5 Z"/></g>
<g><path style="opacity:1" fill="#38434d" d="M 136.5,35.5 C 142.987,34.346 149.654,34.1794 156.5,35C 159.025,35.4238 161.025,36.5905 162.5,38.5C 162.833,39.5 163.5,40.1667 164.5,40.5C 165.167,40.5 165.5,40.8333 165.5,41.5C 165.427,43.0269 166.094,44.0269 167.5,44.5C 170.992,54.0962 169.659,62.9296 163.5,71C 160.178,73.3317 156.511,74.4984 152.5,74.5C 153.234,73.2921 153.567,71.9587 153.5,70.5C 152.167,70.5 150.833,70.5 149.5,70.5C 156.746,70.2841 161.246,66.6174 163,59.5C 165.091,50.5759 162.258,43.9092 154.5,39.5C 152.393,38.5318 150.059,38.1984 147.5,38.5C 147.196,37.8501 146.863,37.1835 146.5,36.5C 143.232,35.513 139.898,35.1796 136.5,35.5 Z"/></g>
<g><path style="opacity:0.997" fill="#364049" d="M 225.5,48.5 C 222.5,47.8333 219.5,47.1667 216.5,46.5C 218.332,44.1058 220.832,43.1058 224,43.5C 227.735,43.2011 230.735,44.5345 233,47.5C 234.443,56.3921 234.943,65.3921 234.5,74.5C 232.833,74.5 231.167,74.5 229.5,74.5C 229.666,67.4921 229.5,60.4921 229,53.5C 228.777,51.1192 227.61,49.4525 225.5,48.5 Z"/></g>
<g><path style="opacity:1" fill="#4b545c" d="M 248.5,45.5 C 248.856,47.1898 249.856,48.1898 251.5,48.5C 249.109,50.6148 247.776,53.2814 247.5,56.5C 252.833,56.5 258.167,56.5 263.5,56.5C 258.025,57.4889 252.358,57.8222 246.5,57.5C 246.5,56.1667 246.5,54.8333 246.5,53.5C 245.167,53.5 243.833,53.5 242.5,53.5C 243.079,49.6393 245.079,46.9726 248.5,45.5 Z"/></g>
<g><path style="opacity:0.78" fill="#596268" d="M 445.5,44.5 C 447.361,46.5616 449.695,47.8949 452.5,48.5C 446.453,47.5815 442.453,49.9149 440.5,55.5C 440.799,53.396 440.466,51.396 439.5,49.5C 438.575,50.6405 437.741,50.6405 437,49.5C 436.5,57.8267 436.334,66.16 436.5,74.5C 435.504,60.3431 435.171,46.0097 435.5,31.5C 437.167,31.5 438.833,31.5 440.5,31.5C 440.334,36.8437 440.501,42.1771 441,47.5C 442.129,45.8588 443.629,44.8588 445.5,44.5 Z"/></g>
<g><path style="opacity:0.995" fill="#1d2932" d="M 436.5,32.5 C 437.5,32.5 438.5,32.5 439.5,32.5C 439.5,37.8333 439.5,43.1667 439.5,48.5C 438.5,48.5 437.5,48.5 436.5,48.5C 436.5,43.1667 436.5,37.8333 436.5,32.5 Z"/></g>
<g><path style="opacity:0.993" fill="#46505a" d="M 209.5,44.5 C 210.833,44.5 212.167,44.5 213.5,44.5C 213.34,46.1992 213.506,47.8659 214,49.5C 214.383,48.944 214.883,48.6107 215.5,48.5C 215.5,49.8333 215.5,51.1667 215.5,52.5C 214.57,59.7771 214.236,67.1104 214.5,74.5C 212.5,74.5 210.5,74.5 208.5,74.5C 208.173,64.3194 208.506,54.3194 209.5,44.5 Z"/></g>
<g><path style="opacity:1" fill="#202d36" d="M 328.5,48.5 C 328.666,55.175 328.5,61.8417 328,68.5C 325.342,69.694 324.176,68.694 324.5,65.5C 324.5,65.1667 324.5,64.8333 324.5,64.5C 325.793,62.6365 325.793,60.6365 324.5,58.5C 323.893,58.6236 323.56,58.9569 323.5,59.5C 323.167,59.5 322.833,59.5 322.5,59.5C 321.022,59.762 319.689,59.4287 318.5,58.5C 320.867,57.1785 322.867,55.5118 324.5,53.5C 324.5,52.5 324.5,51.5 324.5,50.5C 324.737,46.4988 326.07,45.8321 328.5,48.5 Z"/></g>
<g><path style="opacity:0.995" fill="#3e4952" d="M 421.5,69.5 C 422.239,69.369 422.906,69.5357 423.5,70C 421.963,71.1096 421.297,72.6096 421.5,74.5C 409.497,76.9742 403.163,71.9742 402.5,59.5C 403.546,45.4629 410.879,40.6296 424.5,45C 429.387,47.877 429.554,50.7103 425,53.5C 420.76,47.7042 415.76,47.0375 410,51.5C 406.801,57.6218 407.301,63.4552 411.5,69C 414.753,70.8203 418.087,70.9869 421.5,69.5 Z"/></g>
<g><path style="opacity:0.763" fill="#59646c" d="M 374.5,47.5 C 373.782,49.1368 373.616,50.8034 374,52.5C 374.816,51.1772 375.983,50.5106 377.5,50.5C 376.85,52.4352 376.517,54.4352 376.5,56.5C 381.5,56.5 386.5,56.5 391.5,56.5C 391.483,54.4352 391.15,52.4352 390.5,50.5C 391.117,50.3893 391.617,50.056 392,49.5C 392.497,52.146 392.664,54.8127 392.5,57.5C 386.833,57.5 381.167,57.5 375.5,57.5C 375.5,56.1667 375.5,54.8333 375.5,53.5C 373.041,53.31 371.374,54.31 370.5,56.5C 370.502,52.8355 371.835,49.8355 374.5,47.5 Z"/></g>
<g><path style="opacity:1" fill="#2b3740" d="M 267.5,51.5 C 268.477,54.2869 268.81,57.2869 268.5,60.5C 261.5,60.5 254.5,60.5 247.5,60.5C 246.193,62.2232 246.193,64.0565 247.5,66C 245.67,66.1816 244.003,65.6816 242.5,64.5C 241.213,60.9351 241.213,57.2684 242.5,53.5C 243.833,53.5 245.167,53.5 246.5,53.5C 246.5,54.8333 246.5,56.1667 246.5,57.5C 252.358,57.8222 258.025,57.4889 263.5,56.5C 263.5,55.8333 263.5,55.1667 263.5,54.5C 263.201,52.396 263.534,50.396 264.5,48.5C 265.288,49.7701 266.288,50.7701 267.5,51.5 Z"/></g>
<g><path style="opacity:1" fill="#687277" d="M 324.5,53.5 C 322.867,55.5118 320.867,57.1785 318.5,58.5C 319.689,59.4287 321.022,59.762 322.5,59.5C 321.081,60.4511 319.415,60.7845 317.5,60.5C 317.5,59.5 317.5,58.5 317.5,57.5C 316.167,57.5 314.833,57.5 313.5,57.5C 317.223,56.5899 320.889,55.2566 324.5,53.5 Z"/></g>
<g><path style="opacity:1" fill="#2a363f" d="M 394.5,48.5 C 396.498,52.1259 397.498,56.1259 397.5,60.5C 390.137,60.1694 382.803,60.5027 375.5,61.5C 376.309,63.0709 376.643,64.7376 376.5,66.5C 374.958,65.6993 373.292,65.366 371.5,65.5C 371.737,64.209 371.404,63.209 370.5,62.5C 370.5,60.5 370.5,58.5 370.5,56.5C 371.374,54.31 373.041,53.31 375.5,53.5C 375.5,54.8333 375.5,56.1667 375.5,57.5C 381.167,57.5 386.833,57.5 392.5,57.5C 392.664,54.8127 392.497,52.146 392,49.5C 391.617,50.056 391.117,50.3893 390.5,50.5C 391.195,48.15 392.528,47.4833 394.5,48.5 Z"/></g>
<g><path style="opacity:0.995" fill="#25343e" d="M 440.5,55.5 C 440.5,61.8333 440.5,68.1667 440.5,74.5C 439.167,74.5 437.833,74.5 436.5,74.5C 436.334,66.16 436.5,57.8267 437,49.5C 437.741,50.6405 438.575,50.6405 439.5,49.5C 440.466,51.396 440.799,53.396 440.5,55.5 Z"/></g>
<g><path style="opacity:1" fill="#334048" d="M 452.5,48.5 C 449.695,47.8949 447.361,46.5616 445.5,44.5C 449.681,43.0902 453.847,43.4236 458,45.5C 458.667,46.8333 459.333,48.1667 460,49.5C 460.5,57.8267 460.666,66.16 460.5,74.5C 458.833,74.5 457.167,74.5 455.5,74.5C 455.666,67.1591 455.5,59.8258 455,52.5C 454.338,51.0161 453.504,49.6828 452.5,48.5 Z"/></g>
<g><path style="opacity:1" fill="#85d2a3" d="M 57.5,48.5 C 59.3343,55.1029 58.501,61.4362 55,67.5C 53.6703,68.5822 52.1703,69.2488 50.5,69.5C 50.6941,67.0882 52.0274,66.0882 54.5,66.5C 56.7827,60.8044 57.7827,54.8044 57.5,48.5 Z"/></g>
<g><path style="opacity:0.549" fill="#8bddaa" d="M 114.5,4.5 C 114.5,4.16667 114.5,3.83333 114.5,3.5C 118.02,4.18279 120.52,6.18279 122,9.5C 122.667,38.1667 122.667,66.8333 122,95.5C 121.303,97.5844 120.136,99.2511 118.5,100.5C 118.5,100.167 118.5,99.8333 118.5,99.5C 118.498,97.1691 119.331,95.1691 121,93.5C 121.667,66.1667 121.667,38.8333 121,11.5C 119.705,8.41913 117.539,6.08579 114.5,4.5 Z"/></g>
<g><path style="opacity:1" fill="#3f4a53" d="M 197.5,47.5 C 198.222,47.9175 198.722,48.5842 199,49.5C 199.5,56.4921 199.666,63.4921 199.5,70.5C 200.209,71.404 201.209,71.7373 202.5,71.5C 202.5,72.5 202.5,73.5 202.5,74.5C 199.715,75.8847 197.382,75.218 195.5,72.5C 195.5,71.8333 195.5,71.1667 195.5,70.5C 194.909,69.8485 194.243,69.1818 193.5,68.5C 194.348,66.5914 194.682,64.5914 194.5,62.5C 194.5,61.5 194.5,60.5 194.5,59.5C 192.194,59.9926 189.861,60.3259 187.5,60.5C 185.533,60.7394 183.699,60.4061 182,59.5C 181.51,60.7932 181.343,62.1266 181.5,63.5C 181.244,65.7925 181.577,67.9592 182.5,70C 185.146,70.4974 187.813,70.6641 190.5,70.5C 191.906,70.9731 192.573,71.9731 192.5,73.5C 187.288,76.3903 182.288,76.0569 177.5,72.5C 174.592,67.7103 174.925,63.2103 178.5,59C 183.104,57.3123 187.771,55.8123 192.5,54.5C 193.452,52.9547 193.785,51.288 193.5,49.5C 194.345,47.2381 195.678,46.5714 197.5,47.5 Z M 194.5,62.5 C 193.732,65.3693 192.399,68.0359 190.5,70.5C 187.813,70.6641 185.146,70.4974 182.5,70C 181.577,67.9592 181.244,65.7925 181.5,63.5C 183.412,62.2008 185.412,61.2008 187.5,60.5C 189.861,60.3259 192.194,59.9926 194.5,59.5C 194.5,60.5 194.5,61.5 194.5,62.5 Z"/></g>
<g><path style="opacity:1" fill="#717c84" d="M 187.5,60.5 C 185.412,61.2008 183.412,62.2008 181.5,63.5C 181.343,62.1266 181.51,60.7932 182,59.5C 183.699,60.4061 185.533,60.7394 187.5,60.5 Z"/></g>
<g><path style="opacity:0.082" fill="#dbe2e5" d="M 265.5,66.5 C 264.833,66.8333 264.167,67.1667 263.5,67.5C 263.711,65.5759 264.377,65.2426 265.5,66.5 Z"/></g>
<g><path style="opacity:1" fill="#3d4750" d="M 370.5,62.5 C 371.404,63.209 371.737,64.209 371.5,65.5C 373.292,65.366 374.958,65.6993 376.5,66.5C 379.729,69.9249 383.729,71.2582 388.5,70.5C 390.5,70.5 391.5,71.5 391.5,73.5C 386.738,75.9771 381.738,76.1437 376.5,74C 372.773,71.0455 370.773,67.2121 370.5,62.5 Z"/></g>
<g><path style="opacity:1" fill="#535d64" d="M 247.5,60.5 C 247.584,63.3274 248.25,65.994 249.5,68.5C 248.022,68.238 246.689,68.5713 245.5,69.5C 246.289,71.4879 247.455,71.8213 249,70.5C 250.085,71.7356 250.918,73.0689 251.5,74.5C 245.764,73.7256 242.764,70.3923 242.5,64.5C 244.003,65.6816 245.67,66.1816 247.5,66C 246.193,64.0565 246.193,62.2232 247.5,60.5 Z"/></g>
<g><path style="opacity:1" fill="#2d353e" d="M 265.5,66.5 C 266.234,67.7079 266.567,69.0413 266.5,70.5C 266.5,71.8333 265.833,72.5 264.5,72.5C 263.503,72.5299 262.836,72.0299 262.5,71C 262.989,69.8615 263.322,68.6948 263.5,67.5C 264.167,67.1667 264.833,66.8333 265.5,66.5 Z"/></g>
<g><path style="opacity:0.827" fill="#99a0a5" d="M 265.5,66.5 C 268.884,67.244 269.218,68.5774 266.5,70.5C 266.567,69.0413 266.234,67.7079 265.5,66.5 Z"/></g>
<g><path style="opacity:0.981" fill="#5b656b" d="M 194.5,62.5 C 194.682,64.5914 194.348,66.5914 193.5,68.5C 194.243,69.1818 194.909,69.8485 195.5,70.5C 194.167,70.5 193.5,71.1667 193.5,72.5C 193.5,73.1667 193.167,73.5 192.5,73.5C 192.573,71.9731 191.906,70.9731 190.5,70.5C 192.399,68.0359 193.732,65.3693 194.5,62.5 Z"/></g>
<g><path style="opacity:0.996" fill="#464f57" d="M 328.5,48.5 C 329.329,55.3213 329.829,62.3213 330,69.5C 336.344,73.1595 335.844,74.9928 328.5,75C 326.667,74.5 325.5,73.3333 325,71.5C 319,76.8333 313,76.8333 307,71.5C 304.934,66.2664 306.101,61.7664 310.5,58C 311.448,57.5172 312.448,57.3505 313.5,57.5C 314.833,57.5 316.167,57.5 317.5,57.5C 317.5,58.5 317.5,59.5 317.5,60.5C 313.111,61.392 311.277,64.0586 312,68.5C 317.045,72.2225 321.212,71.2225 324.5,65.5C 324.176,68.694 325.342,69.694 328,68.5C 328.5,61.8417 328.666,55.175 328.5,48.5 Z M 322.5,59.5 C 322.833,59.5 323.167,59.5 323.5,59.5C 324.451,60.9187 324.784,62.5853 324.5,64.5C 324.5,64.8333 324.5,65.1667 324.5,65.5C 321.212,71.2225 317.045,72.2225 312,68.5C 311.277,64.0586 313.111,61.392 317.5,60.5C 319.415,60.7845 321.081,60.4511 322.5,59.5 Z"/></g>
<g><path style="opacity:0.443" fill="#969da3" d="M 323.5,59.5 C 323.56,58.9569 323.893,58.6236 324.5,58.5C 325.793,60.6365 325.793,62.6365 324.5,64.5C 324.784,62.5853 324.451,60.9187 323.5,59.5 Z"/></g>
<g><path style="opacity:1" fill="#5b636a" d="M 391.5,73.5 C 391.5,71.5 390.5,70.5 388.5,70.5C 389.968,69.1943 391.301,67.6943 392.5,66C 395.47,65.9783 396.636,67.4783 396,70.5C 394.871,72.1412 393.371,73.1412 391.5,73.5 Z"/></g>
<g><path style="opacity:1" fill="#4c565c" d="M 421.5,74.5 C 421.297,72.6096 421.963,71.1096 423.5,70C 422.906,69.5357 422.239,69.369 421.5,69.5C 422.81,67.8523 424.143,66.1856 425.5,64.5C 427.002,65.0831 428.335,65.9164 429.5,67C 428.252,71.0832 425.585,73.5832 421.5,74.5 Z"/></g>
<g><path style="opacity:0.997" fill="#646f75" d="M 263.5,67.5 C 263.322,68.6948 262.989,69.8615 262.5,71C 262.836,72.0299 263.503,72.5299 264.5,72.5C 263.653,73.9663 262.32,74.7996 260.5,75C 257.304,75.8045 254.304,75.6378 251.5,74.5C 254.167,74.5 256.833,74.5 259.5,74.5C 259.5,73.5 259.5,72.5 259.5,71.5C 257.265,71.7947 255.265,71.4614 253.5,70.5C 257.338,70.9784 260.671,69.9784 263.5,67.5 Z"/></g>
<g><path style="opacity:0.439" fill="#93989d" d="M 281.5,69.5 C 283.042,70.3007 284.708,70.634 286.5,70.5C 286.5,72.1667 286.5,73.8333 286.5,75.5C 283.941,75.8016 281.607,75.4682 279.5,74.5C 281.5,74.5 283.5,74.5 285.5,74.5C 285.5,73.5 285.5,72.5 285.5,71.5C 283.517,71.8432 282.183,71.1765 281.5,69.5 Z"/></g>
<g><path style="opacity:0.106" fill="#d3d6e1" d="M 195.5,70.5 C 195.5,71.1667 195.5,71.8333 195.5,72.5C 194.833,72.5 194.167,72.5 193.5,72.5C 193.5,71.1667 194.167,70.5 195.5,70.5 Z"/></g>
<g><path style="opacity:0.408" fill="#a1a5a9" d="M 199.5,70.5 C 200.833,70.5 202.167,70.5 203.5,70.5C 203.768,72.099 203.434,73.4324 202.5,74.5C 202.5,73.5 202.5,72.5 202.5,71.5C 201.209,71.7373 200.209,71.404 199.5,70.5 Z"/></g>
<g><path style="opacity:1" fill="#212d36" d="M 249.5,68.5 C 250.833,69.1667 252.167,69.8333 253.5,70.5C 255.265,71.4614 257.265,71.7947 259.5,71.5C 259.5,72.5 259.5,73.5 259.5,74.5C 256.833,74.5 254.167,74.5 251.5,74.5C 250.918,73.0689 250.085,71.7356 249,70.5C 247.455,71.8213 246.289,71.4879 245.5,69.5C 246.689,68.5713 248.022,68.238 249.5,68.5 Z"/></g>
<g><path style="opacity:0.984" fill="#687076" d="M 297.5,69.5 C 299.042,70.3007 300.708,70.634 302.5,70.5C 302.966,72.2012 302.966,73.7012 302.5,75C 299.961,75.7958 297.628,75.6291 295.5,74.5C 297.581,73.2804 299.581,72.6137 301.5,72.5C 299.668,71.9432 298.335,70.9432 297.5,69.5 Z"/></g>
<g><path style="opacity:1" fill="#67bb89" d="M 55.5,71.5 C 53.6146,73.3115 51.2813,74.4782 48.5,75C 42.3188,75.8192 36.3188,75.6525 30.5,74.5C 30.8333,74.5 31.1667,74.5 31.5,74.5C 39.6911,74.8056 47.6911,73.8056 55.5,71.5 Z"/></g>
<g><path style="opacity:1" fill="#3dbc74" d="M 118.5,99.5 C 118.5,99.8333 118.5,100.167 118.5,100.5C 81.6871,101.811 45.0204,101.811 8.5,100.5C 45.184,100.795 81.8507,100.461 118.5,99.5 Z"/></g>
<g><path style="opacity:1" fill="#78c595" d="M 3.5,8.5 C 3.16684,37.8409 3.50017,67.1742 4.5,96.5C 5.85433,97.8543 7.18766,99.1877 8.5,100.5C 45.0204,101.811 81.6871,101.811 118.5,100.5C 118.082,101.222 117.416,101.722 116.5,102C 80.1667,102.667 43.8333,102.667 7.5,102C 4.8127,100.125 2.97936,97.6251 2,94.5C 1.33333,66.8333 1.33333,39.1667 2,11.5C 2.23209,10.2625 2.73209,9.26253 3.5,8.5 Z"/></g>
</svg>
