<?xml version="1.0" encoding="UTF-8"?>
<!DOCTYPE svg PUBLIC "-//W3C//DTD SVG 1.1//EN" "http://www.w3.org/Graphics/SVG/1.1/DTD/svg11.dtd">
<svg xmlns="http://www.w3.org/2000/svg" version="1.1" width="470px" height="109px" style="shape-rendering:geometricPrecision; text-rendering:geometricPrecision; image-rendering:optimizeQuality; fill-rule:evenodd; clip-rule:evenodd" xmlns:xlink="http://www.w3.org/1999/xlink">
<g><path style="opacity:1" fill="#33c26c" d="M 123.5,8.5 C 123.216,10.4147 123.549,12.0813 124.5,13.5C 124.667,40.5021 124.5,67.5021 124,94.5C 123.79,97.2342 122.956,99.7342 121.5,102C 85.1667,102.667 48.8333,102.667 12.5,102C 11.2744,100.365 9.94103,98.8651 8.5,97.5C 7.16667,68.8333 7.16667,40.1667 8.5,11.5C 9.9917,9.8435 11.6584,8.3435 13.5,7C 48.5,6.33333 83.5,6.33333 118.5,7C 120.025,8.00864 121.692,8.50864 123.5,8.5 Z M 52.5,37.5 C 54.8333,38.1667 57.1667,38.8333 59.5,39.5C 62.5951,42.692 64.9284,46.3587 66.5,50.5C 66.8996,56.6544 66.2329,62.6544 64.5,68.5C 62.5,69.8333 60.8333,71.5 59.5,73.5C 51.7264,75.9208 43.7264,76.9208 35.5,76.5C 35.5,63.5 35.5,50.5 35.5,37.5C 41.1667,37.5 46.8333,37.5 52.5,37.5 Z M 72.5,37.5 C 82.1667,37.5 91.8333,37.5 101.5,37.5C 101.5,38.5 101.5,39.5 101.5,40.5C 97.5,40.5 93.5,40.5 89.5,40.5C 89.5,52.5 89.5,64.5 89.5,76.5C 88.1667,76.5 86.8333,76.5 85.5,76.5C 85.8284,64.3217 85.4951,52.3217 84.5,40.5C 80.5,40.5 76.5,40.5 72.5,40.5C 72.5,39.5 72.5,38.5 72.5,37.5 Z"/></g>
<g><path style="opacity:1" fill="#69c28a" d="M 123.5,8.5 C 121.692,8.50864 120.025,8.00864 118.5,7C 83.5,6.33333 48.5,6.33333 13.5,7C 11.6584,8.3435 9.9917,9.8435 8.5,11.5C 7.16667,40.1667 7.16667,68.8333 8.5,97.5C 9.94103,98.8651 11.2744,100.365 12.5,102C 48.8333,102.667 85.1667,102.667 121.5,102C 122.956,99.7342 123.79,97.2342 124,94.5C 124.5,67.5021 124.667,40.5021 124.5,13.5C 125.498,41.3284 125.831,69.3284 125.5,97.5C 125.288,100.712 123.621,102.712 120.5,103.5C 84.1667,103.5 47.8333,103.5 11.5,103.5C 10.1182,101.451 8.45155,99.7847 6.5,98.5C 5.35013,70.2089 5.18346,41.8755 6,13.5C 6.83333,8.66667 9.66667,5.83333 14.5,5C 49.1667,4.33333 83.8333,4.33333 118.5,5C 120.881,5.22329 122.547,6.38995 123.5,8.5 Z M 52.5,37.5 C 54.8333,38.1667 57.1667,38.8333 59.5,39.5C 62.5951,42.692 64.9284,46.3587 66.5,50.5C 66.8996,56.6544 66.2329,62.6544 64.5,68.5C 62.5,69.8333 60.8333,71.5 59.5,73.5C 51.7264,75.9208 43.7264,76.9208 35.5,76.5C 35.5,63.5 35.5,50.5 35.5,37.5C 41.1667,37.5 46.8333,37.5 52.5,37.5 Z M 72.5,37.5 C 82.1667,37.5 91.8333,37.5 101.5,37.5C 101.5,38.5 101.5,39.5 101.5,40.5C 97.5,40.5 93.5,40.5 89.5,40.5C 89.5,52.5 89.5,64.5 89.5,76.5C 88.1667,76.5 86.8333,76.5 85.5,76.5C 85.8284,64.3217 85.4951,52.3217 84.5,40.5C 80.5,40.5 76.5,40.5 72.5,40.5C 72.5,39.5 72.5,38.5 72.5,37.5 Z"/></g>
<g><path style="opacity:0.98" fill="#f6f6f6" d="M 280.5,33.5 C 282.144,33.2865 283.644,33.6198 285,34.5C 285.333,46.5 285.667,58.5 286,70.5C 293.395,75.1544 292.562,77.3211 283.5,77C 281.667,76.5 280.5,75.3333 280,73.5C 279.187,60.0915 279.353,46.7582 280.5,33.5 Z"/></g>
<g><path style="opacity:0.97" fill="#f6f6f6" d="M 296.5,33.5 C 298.144,33.2865 299.644,33.6198 301,34.5C 301.333,46.5 301.667,58.5 302,70.5C 303.444,72.1554 305.278,72.822 307.5,72.5C 308.259,76.2403 306.759,77.907 303,77.5C 299.967,77.481 297.633,76.1477 296,73.5C 295.187,60.0915 295.353,46.7582 296.5,33.5 Z"/></g>
<g><path style="opacity:0.866" fill="#fafafa" d="M 439.5,33.5 C 441.288,33.2148 442.955,33.5481 444.5,34.5C 445.112,38.8198 445.778,43.1532 446.5,47.5C 452.239,44.6396 457.739,44.973 463,48.5C 464.927,53.9771 465.76,59.6437 465.5,65.5C 465.333,68.8333 465.167,72.1667 465,75.5C 463.445,77.5152 461.611,77.8485 459.5,76.5C 458.697,68.5485 458.197,60.5485 458,52.5C 453.448,49.5424 449.448,50.2091 446,54.5C 445.667,61.5 445.333,68.5 445,75.5C 443.599,77.1922 441.766,77.8588 439.5,77.5C 439.13,62.7601 439.13,48.0935 439.5,33.5 Z"/></g>
<g><path style="opacity:1" fill="#59b980" d="M 35.5,36.5 C 41.3188,35.3475 47.3188,35.1808 53.5,36C 56.0254,36.4238 58.0254,37.5905 59.5,39.5C 57.1667,38.8333 54.8333,38.1667 52.5,37.5C 47.0247,36.5111 41.358,36.1778 35.5,36.5 Z"/></g>
<g><path style="opacity:0.86" fill="#fafafa" d="M 142.5,35.5 C 150.409,35.2795 158.076,36.4462 165.5,39C 173.069,45.4958 175.569,53.6624 173,63.5C 172.08,68.1875 169.58,71.6875 165.5,74C 161.504,75.7501 157.337,76.9168 153,77.5C 150.017,76.2933 147.017,76.2933 144,77.5C 142.289,77.5607 140.956,76.8941 140,75.5C 139.333,62.8333 139.333,50.1667 140,37.5C 140.995,36.9341 141.828,36.2674 142.5,35.5 Z M 146.5,41.5 C 163.328,39.4998 169.828,46.8331 166,63.5C 165.117,66.1024 163.617,68.2691 161.5,70C 156.599,71.3254 151.599,71.8254 146.5,71.5C 146.358,61.3923 146.358,51.3923 146.5,41.5 Z"/></g>
<g><path style="opacity:0.826" fill="#fbfbfb" d="M 341.5,35.5 C 350.52,36.5909 359.52,36.7576 368.5,36C 370.658,37.3117 370.991,38.9783 369.5,41C 365.848,41.4986 362.182,41.6653 358.5,41.5C 358.667,52.8382 358.5,64.1716 358,75.5C 356.604,77.5268 354.938,77.8602 353,76.5C 352.667,74.5 352.333,72.5 352,70.5C 351.623,60.6712 351.456,51.0045 351.5,41.5C 347.818,41.6653 344.152,41.4986 340.5,41C 339.156,38.8564 339.49,37.0231 341.5,35.5 Z"/></g>
<g><path style="opacity:0.044" fill="#e2fdf8" d="M 72.5,37.5 C 72.5,37.1667 72.5,36.8333 72.5,36.5C 82.5,36.5 92.5,36.5 102.5,36.5C 102.768,38.099 102.434,39.4324 101.5,40.5C 101.5,39.5 101.5,38.5 101.5,37.5C 91.8333,37.5 82.1667,37.5 72.5,37.5 Z"/></g>
<g><path style="opacity:0.588" fill="#7dcf9c" d="M 123.5,8.5 C 124.79,9.05773 125.623,10.0577 126,11.5C 126.83,40.3363 126.664,69.0029 125.5,97.5C 125.831,69.3284 125.498,41.3284 124.5,13.5C 123.549,12.0813 123.216,10.4147 123.5,8.5 Z"/></g>
<g><path style="opacity:1" fill="#47be76" d="M 72.5,36.5 C 72.5,36.8333 72.5,37.1667 72.5,37.5C 72.5,38.5 72.5,39.5 72.5,40.5C 76.5,40.5 80.5,40.5 84.5,40.5C 84.5,52.5 84.5,64.5 84.5,76.5C 83.5051,65.012 83.1717,53.3453 83.5,41.5C 79.2325,41.797 75.0659,41.4637 71,40.5C 70.3162,41.7839 70.4829,42.9505 71.5,44C 70.2161,44.6838 69.0495,44.5171 68,43.5C 68.6562,50.9794 68.4896,58.3128 67.5,65.5C 67.8205,60.3054 67.4872,55.3054 66.5,50.5C 64.9284,46.3587 62.5951,42.692 59.5,39.5C 61.9794,40.9744 64.6461,41.9744 67.5,42.5C 68.0545,39.6091 69.7211,37.6091 72.5,36.5 Z"/></g>
<g><path style="opacity:1" fill="#34c26d" d="M 57.5,43.5 C 59.1122,47.7305 60.4456,52.0638 61.5,56.5C 61.2993,60.7561 60.2993,64.7561 58.5,68.5C 56.0274,68.0882 54.6941,69.0882 54.5,71.5C 49.8333,71.5 45.1667,71.5 40.5,71.5C 40.5,61.8333 40.5,52.1667 40.5,42.5C 46.2408,41.2232 51.9075,41.5566 57.5,43.5 Z"/></g>
<g><path style="opacity:0.973" fill="#f7f7f7" d="M 187.5,45.5 C 190.85,45.335 194.183,45.5017 197.5,46C 199.939,46.7739 201.773,48.2739 203,50.5C 203.333,56.8333 203.667,63.1667 204,69.5C 210.407,74.5134 209.574,77.0134 201.5,77C 200.069,76.5348 198.903,75.7014 198,74.5C 192.333,78.5 186.667,78.5 181,74.5C 177.747,63.0557 182.247,57.2224 194.5,57C 198.741,53.6154 198.074,51.4488 192.5,50.5C 188.743,51.5154 185.41,53.0154 182.5,55C 180.789,53.8668 180.289,52.3668 181,50.5C 182.965,48.4497 185.132,46.783 187.5,45.5 Z M 192.5,62.5 C 194.167,62.5 195.833,62.5 197.5,62.5C 198.125,70.045 194.792,73.2117 187.5,72C 184.9,69.541 184.9,67.041 187.5,64.5C 189.336,63.9724 191.003,63.3058 192.5,62.5 Z"/></g>
<g><path style="opacity:0.911" fill="#f8f8f8" d="M 317.5,45.5 C 321.182,45.3347 324.848,45.5014 328.5,46C 330.286,46.7845 331.786,47.9512 333,49.5C 334.081,56.7908 334.747,64.1242 335,71.5C 338.691,72.6748 339.191,74.5081 336.5,77C 333.503,77.7554 331.003,76.9221 329,74.5C 322.09,78.9274 315.757,78.2607 310,72.5C 309.088,68.5475 309.755,64.8809 312,61.5C 316.883,59.1965 321.883,57.1965 327,55.5C 327.833,52.1816 326.499,50.515 323,50.5C 319.555,51.1087 316.722,52.7754 314.5,55.5C 311.856,54.259 311.023,52.259 312,49.5C 313.812,48.0229 315.645,46.6896 317.5,45.5 Z M 323.5,62.5 C 325.167,62.5 326.833,62.5 328.5,62.5C 328.643,70.3674 324.977,73.3674 317.5,71.5C 315.535,65.8043 317.535,62.8043 323.5,62.5 Z"/></g>
<g><path style="opacity:0.952" fill="#f7f7f7" d="M 415.5,45.5 C 420.777,44.9312 425.777,45.7645 430.5,48C 434.59,51.1989 434.257,53.3656 429.5,54.5C 416.643,47.7029 411.143,51.7029 413,66.5C 415.833,71.7773 420,73.2773 425.5,71C 427.017,69.3149 428.684,67.8149 430.5,66.5C 432.942,67.384 433.775,69.0507 433,71.5C 426.249,78.4724 418.749,79.3058 410.5,74C 402.881,62.7322 404.548,53.2322 415.5,45.5 Z"/></g>
<g><path style="opacity:1" fill="#5db67e" d="M 57.5,43.5 C 51.9075,41.5566 46.2408,41.2232 40.5,42.5C 40.5,52.1667 40.5,61.8333 40.5,71.5C 45.1667,71.5 49.8333,71.5 54.5,71.5C 49.6946,72.4872 44.6946,72.8205 39.5,72.5C 39.5,61.8333 39.5,51.1667 39.5,40.5C 44.1785,40.3342 48.8452,40.5008 53.5,41C 55.3197,41.2004 56.653,42.0337 57.5,43.5 Z"/></g>
<g><path style="opacity:0.867" fill="#79c497" d="M 84.5,40.5 C 85.4951,52.3217 85.8284,64.3217 85.5,76.5C 86.8333,76.5 88.1667,76.5 89.5,76.5C 89.5,64.5 89.5,52.5 89.5,40.5C 93.5,40.5 97.5,40.5 101.5,40.5C 98.0381,41.4816 94.3714,41.815 90.5,41.5C 90.5,53.5 90.5,65.5 90.5,77.5C 88.2646,77.7947 86.2646,77.4614 84.5,76.5C 84.5,64.5 84.5,52.5 84.5,40.5 Z"/></g>
<g><path style="opacity:0.917" fill="#f8f8f8" d="M 214.5,45.5 C 216.484,45.3832 218.15,46.0499 219.5,47.5C 234.58,42.3966 241.246,47.8966 239.5,64C 239.706,68.523 239.039,72.8563 237.5,77C 235.112,77.8651 233.612,77.0317 233,74.5C 233.116,70.0689 233.283,65.7356 233.5,61.5C 232.77,58.8908 232.27,56.2241 232,53.5C 228.458,49.592 224.791,49.592 221,53.5C 219.779,61.1213 218.612,68.788 217.5,76.5C 216.167,77.8333 214.833,77.8333 213.5,76.5C 212.335,66.8505 212.168,57.1839 213,47.5C 213.717,46.9558 214.217,46.2891 214.5,45.5 Z"/></g>
<g><path style="opacity:0.966" fill="#f7f7f7" d="M 254.5,45.5 C 267.816,43.8214 273.816,49.488 272.5,62.5C 265.866,63.4967 259.2,63.83 252.5,63.5C 252.58,70.0759 255.913,72.9092 262.5,72C 265.288,70.7078 267.622,68.8745 269.5,66.5C 273.384,70.3216 272.717,73.4882 267.5,76C 252.099,80.2627 244.599,74.4294 245,58.5C 246.245,52.6428 249.412,48.3095 254.5,45.5 Z M 257.5,50.5 C 263.029,49.7496 266.029,52.0829 266.5,57.5C 261.833,57.5 257.167,57.5 252.5,57.5C 252.492,53.8129 254.159,51.4796 257.5,50.5 Z"/></g>
<g><path style="opacity:0.946" fill="#f7f7f7" d="M 382.5,45.5 C 396.646,43.3138 402.98,49.3138 401.5,63.5C 394.5,63.5 387.5,63.5 380.5,63.5C 381.194,70.1802 384.86,73.0135 391.5,72C 393.677,70.4851 395.844,68.9851 398,67.5C 401.292,69.95 401.125,72.45 397.5,75C 381.679,80.8439 373.846,75.3439 374,58.5C 374.663,52.684 377.496,48.3507 382.5,45.5 Z M 386.5,50.5 C 391.076,49.787 394.076,51.6203 395.5,56C 391.028,57.4366 386.361,57.9366 381.5,57.5C 381.492,53.8129 383.159,51.4796 386.5,50.5 Z"/></g>
<g><path style="opacity:0.208" fill="#c7f6dc" d="M 35.5,36.5 C 41.358,36.1778 47.0247,36.5111 52.5,37.5C 46.8333,37.5 41.1667,37.5 35.5,37.5C 35.5,50.5 35.5,63.5 35.5,76.5C 35.1667,76.5 34.8333,76.5 34.5,76.5C 34.1711,62.9895 34.5044,49.6562 35.5,36.5 Z"/></g>
<g><path style="opacity:1" fill="#73ca96" d="M 57.5,43.5 C 61.3007,46.8862 62.9674,51.2195 62.5,56.5C 62.9291,61.2138 61.5957,65.2138 58.5,68.5C 60.2993,64.7561 61.2993,60.7561 61.5,56.5C 60.4456,52.0638 59.1122,47.7305 57.5,43.5 Z"/></g>
<g><path style="opacity:1" fill="#78cf9e" d="M 66.5,50.5 C 67.4872,55.3054 67.8205,60.3054 67.5,65.5C 66.7281,66.6935 65.7281,67.6935 64.5,68.5C 66.2329,62.6544 66.8996,56.6544 66.5,50.5 Z"/></g>
<g><path style="opacity:1" fill="#70c593" d="M 58.5,68.5 C 57.7377,70.2624 56.4044,71.2624 54.5,71.5C 54.6941,69.0882 56.0274,68.0882 58.5,68.5 Z"/></g>
<g><path style="opacity:0.953" fill="#86d4a6" d="M 64.5,68.5 C 63.8333,71.1667 62.1667,72.8333 59.5,73.5C 60.8333,71.5 62.5,69.8333 64.5,68.5 Z"/></g>
<g><path style="opacity:1" fill="#60bb85" d="M 59.5,73.5 C 59.5858,74.4959 59.2524,75.3292 58.5,76C 50.3876,77.7099 42.3876,77.8765 34.5,76.5C 34.8333,76.5 35.1667,76.5 35.5,76.5C 43.7264,76.9208 51.7264,75.9208 59.5,73.5 Z"/></g>
<g><path style="opacity:0.925" fill="#a5dbbd" d="M 6.5,98.5 C 8.45155,99.7847 10.1182,101.451 11.5,103.5C 8.85603,102.856 7.18936,101.189 6.5,98.5 Z"/></g>
<g><path style="opacity:1" fill="#8dc9a1" d="M 11.5,103.5 C 47.8333,103.5 84.1667,103.5 120.5,103.5C 120.082,104.222 119.416,104.722 118.5,105C 83.8333,105.667 49.1667,105.667 14.5,105C 13.2625,104.768 12.2625,104.268 11.5,103.5 Z"/></g>
</svg>
