<svg id="Layer_1" data-name="Layer 1" xmlns="http://www.w3.org/2000/svg" viewBox="0 0 1200 1200"><defs><style>.cls-1{fill:#e9e8e8;}.cls-11,.cls-12,.cls-15,.cls-2,.cls-5,.cls-6,.cls-7{fill:#fff;}.cls-10,.cls-16,.cls-2{stroke:#1d252e;}.cls-10,.cls-11,.cls-12,.cls-13,.cls-14,.cls-15,.cls-16,.cls-2,.cls-5,.cls-7,.cls-8,.cls-9{stroke-linecap:round;stroke-linejoin:round;}.cls-16,.cls-2{stroke-width:4px;}.cls-3{fill:#1d252f;}.cls-4{fill:#9ed4c0;}.cls-11,.cls-12,.cls-13,.cls-14,.cls-15,.cls-5,.cls-7,.cls-8,.cls-9{stroke:#1d252f;}.cls-5,.cls-8{stroke-width:0.74px;}.cls-7{stroke-width:0.73px;}.cls-10,.cls-13,.cls-14,.cls-16,.cls-8,.cls-9{fill:none;}.cls-9{stroke-width:0.93px;}.cls-10{stroke-width:2px;}.cls-11,.cls-13{stroke-width:0.84px;}.cls-12{stroke-width:0.83px;}.cls-14{stroke-width:1.09px;}.cls-15{stroke-width:0.66px;}.cls-17{fill:#1d252e;}.cls-18{fill:#9dd5c0;}</style></defs><path id="Path-141" class="cls-1" d="M758.14,467.29C647.45,392.45,393.16,193.21,260,309.14S199.75,981.74,592,921.8c147.36-22.52,370-34.95,401.22-104C1045.12,702.94,827.25,514,758.14,467.29Z"/><rect class="cls-2" x="321.54" y="185.33" width="171.52" height="171.52" rx="11.56"/><path class="cls-3" d="M438.94,237.4V218.56a9.81,9.81,0,0,0-9.79-9.78l-43.72,0a9.8,9.8,0,0,0-9.78,9.79v7.65h-.37v6.59h.38v1.54h-.38v10.38h.37v.39h-.37v10.38h.38l0,68.09a9.8,9.8,0,0,0,9.79,9.79l43.72,0a9.8,9.8,0,0,0,9.78-9.79l0-71h.38V237.4Z"/><path class="cls-4" d="M434.93,217.88,435,325a4.67,4.67,0,0,1-4.47,4.62h-.24l-45.85,0h-.24A4.67,4.67,0,0,1,379.7,325l-.05-107.09a4.68,4.68,0,0,1,4.71-4.62h7.94v.94a3.13,3.13,0,0,0,3.17,3.09h23.65a3.13,3.13,0,0,0,3.16-3.09v-.94h7.93A4.68,4.68,0,0,1,434.93,217.88Z"/><rect class="cls-5" x="385.32" y="275.9" width="43.96" height="4.9" rx="1.11"/><circle class="cls-6" cx="415.04" cy="214.01" r="0.74"/><rect class="cls-6" x="399.6" y="213.27" width="13.27" height="1.48" rx="0.74"/><rect class="cls-7" x="385.34" y="229.06" width="43.96" height="40.81" rx="2.91"/><line class="cls-8" x1="385.32" y1="287.04" x2="429.28" y2="287.04"/><line class="cls-8" x1="385.32" y1="292.9" x2="429.28" y2="292.9"/><line class="cls-8" x1="395.21" y1="298.76" x2="419.4" y2="298.76"/><polyline class="cls-9" points="387.22 229.26 407.43 249.47 427.57 269.61"/><polyline class="cls-9" points="427.58 229.31 407.43 249.47 387.21 269.68"/><circle class="cls-10" cx="471.91" cy="333.04" r="13.28"/><circle class="cls-3" cx="467.47" cy="333.04" r="1.02"/><circle class="cls-3" cx="471.91" cy="333.04" r="1.02"/><circle class="cls-3" cx="476.35" cy="333.04" r="1.02"/><rect class="cls-2" x="656.32" y="247.55" width="171.52" height="171.52" rx="11.56"/><path class="cls-3" d="M778,367h20.08a10.44,10.44,0,0,0,10.43-10.43l0-46.62a10.44,10.44,0,0,0-10.44-10.42H789.9v-.4h-7v.39h-1.64v-.39H770.17v.4h-.42v-.4H758.68v.39l-72.6,0a10.45,10.45,0,0,0-10.43,10.44l0,46.61a10.46,10.46,0,0,0,10.44,10.43l75.76,0v.4H778Z"/><path class="cls-4" d="M798.82,362.77l-114.18.05a5,5,0,0,1-4.91-4.77,2.17,2.17,0,0,1,0-.26l0-48.88v-.26a5,5,0,0,1,4.92-4.77l114.17-.06a5,5,0,0,1,4.93,5v8.46h-1a3.34,3.34,0,0,0-3.3,3.37l0,25.22a3.34,3.34,0,0,0,3.3,3.37h1v8.46A5,5,0,0,1,798.82,362.77Z"/><circle class="cls-6" cx="802.95" cy="341.55" r="0.79"/><rect class="cls-6" x="795.87" y="331.38" width="14.15" height="1.57" rx="0.79" transform="translate(1134.73 -470.93) rotate(89.97)"/><rect class="cls-11" x="742.38" y="310.95" width="49.64" height="5.53" rx="1.25"/><rect class="cls-12" x="685.92" y="310.28" width="49.64" height="46.08" rx="3.28"/><line class="cls-13" x1="742.38" y1="321.84" x2="792.01" y2="321.84"/><line class="cls-13" x1="742.38" y1="328.46" x2="792.01" y2="328.46"/><line class="cls-13" x1="742.86" y1="335.08" x2="780.85" y2="335.08"/><polyline class="cls-14" points="687.44 311.23 710.3 333.25 733.31 355.85"/><polyline class="cls-14" points="733.28 310.68 710.3 333.25 687.6 355.6"/><polyline class="cls-10" points="799.06 397.31 802.81 401.06 813.25 390.61"/><circle class="cls-10" cx="806.7" cy="395.44" r="13.28"/><rect class="cls-2" x="744.03" y="545.92" width="171.52" height="171.52" rx="11.56"/><path class="cls-3" d="M861.43,598V579.16a9.78,9.78,0,0,0-9.79-9.78l-43.72,0a9.8,9.8,0,0,0-9.78,9.79v7.65h-.38v6.59h.37V595h-.37v10.38h.37v.39h-.38v10.39h.37l0,68.09A9.8,9.8,0,0,0,808,694l43.72,0a9.8,9.8,0,0,0,9.78-9.79l0-71h.37V598Z"/><path class="cls-4" d="M857.42,578.47l.05,107.09a4.68,4.68,0,0,1-4.47,4.61h-.25l-45.85,0h-.24a4.67,4.67,0,0,1-4.48-4.61l0-107.08a4.68,4.68,0,0,1,4.72-4.62h7.93v.94a3.14,3.14,0,0,0,3.17,3.1l23.65,0a3.12,3.12,0,0,0,3.16-3.09v-.94h7.94A4.67,4.67,0,0,1,857.42,578.47Z"/><circle class="cls-6" cx="837.52" cy="574.6" r="0.74"/><rect class="cls-6" x="822.08" y="573.87" width="13.27" height="1.48" rx="0.74"/><rect class="cls-3" x="833.07" y="589.48" width="18.7" height="4.9" rx="0.72"/><rect class="cls-5" x="807.83" y="589.66" width="21.96" height="40.81" rx="2.06"/><line class="cls-5" x1="833.07" y1="598.31" x2="851.77" y2="598.31"/><line class="cls-5" x1="833.07" y1="604.17" x2="851.77" y2="604.17"/><line class="cls-5" x1="833.11" y1="610.03" x2="843.4" y2="610.03"/><line class="cls-5" x1="809.47" y1="636.43" x2="851.77" y2="636.43"/><line class="cls-5" x1="809.47" y1="642.3" x2="851.77" y2="642.3"/><line class="cls-5" x1="809.58" y1="648.16" x2="843.4" y2="648.16"/><line class="cls-15" x1="808.38" y1="590.38" x2="829.27" y2="629.74"/><line class="cls-15" x1="829.27" y1="590.38" x2="808.38" y2="629.74"/><line class="cls-10" x1="889.18" y1="699.13" x2="899.62" y2="688.69"/><line class="cls-10" x1="899.62" y1="699.13" x2="889.18" y2="688.69"/><circle class="cls-10" cx="894.4" cy="693.91" r="13.28"/><path class="cls-16" d="M609.85,499.27a44.36,44.36,0,1,1,2.84-62.68A44.36,44.36,0,0,1,609.85,499.27Z"/><path class="cls-17" d="M543.33,429.49a52.23,52.23,0,1,0,73.8,3.33A52.24,52.24,0,0,0,543.33,429.49Zm66.12,72.37a45.79,45.79,0,1,1,2.93-64.69A45.8,45.8,0,0,1,609.45,501.86Z"/><path class="cls-17" d="M614,502.48a49.1,49.1,0,0,0,5.45,5.72c1,.9,2,1.77,3,2.62a4.2,4.2,0,0,0,1.88,1,5,5,0,0,1,2,.86c3.72,3.74,7.44,7.47,11.08,11.28,1.83,1.9,3.67,3.79,5.47,5.72s3.62,3.82,5.39,5.77c3.58,3.86,7.11,7.78,10.54,11.78a5.84,5.84,0,0,1-8.62,7.87c-3.68-3.78-7.26-7.64-10.78-11.56-1.78-1.94-3.52-3.92-5.26-5.89s-3.48-4-5.2-6c-3.47-4-6.85-8-10.24-12a4.91,4.91,0,0,1-.67-2.06,4.13,4.13,0,0,0-.79-2c-.75-1.1-1.53-2.17-2.33-3.22a50.81,50.81,0,0,0-5.21-5.94,2.93,2.93,0,0,1,4-4.26A3,3,0,0,1,614,502.48Z"/><path id="Path-25" class="cls-6" d="M344.63,766.61c-.31,2.43-.55,4.87-.82,7.3"/><path id="Path-26" class="cls-6" d="M285.28,731.16a133.88,133.88,0,0,0,7.18,88.36c26.16,23.87,120.69,6.74,155.88,2.82,24.46,3.16,48.35-.18,68.51-13.39,30.23-19.82-2.2-30.32-21.2-30.13s-35.92,9.2-54.43,11.27c-30-2.77-68.27-5.14-96.64-14.74q1.83-12.17,4-24.24"/><path id="Path-26-2" data-name="Path-26" class="cls-16" d="M282.28,751.65c-1.75,23.94,1.59,45.22,11,67.34,26.24,23.93,120.56,6.59,155.85,2.83,24.43,3.17,48.38-.16,68.53-13.35,30.21-19.79-2.2-30.3-21.19-30.14s-35.93,9.19-54.43,11.26c-30-2.75-68.29-5.19-96.65-14.79.5-3.34,1-6.66,1.53-10"/><path id="Path-88" class="cls-18" d="M415.41,627.3c-14.43-15.4-10.29-37.46-38.21-36.57C323,592.46,288.52,694.28,279,737c28.69,9,58.35,17.55,87.46,26.13,6.34-1.09,12.68-2.1,19-3.11C393.59,715.37,403.28,671.21,415.41,627.3Z"/><path id="Path-103" class="cls-6" d="M512.25,459.45c9.85,1.93,25.2-4.5,35-2.57,2.11,9.22-1.21,26.78.76,36-2.62,9.86-.67,17.24-3.43,27.06-2.83,11.26-13.7,20.12-23.52,21.74q-9.47,3.79-19,7.44c-5.46,18.3-10.81,36.55-14.27,55.37,13.25,2.38,26.69,3.77,40,5.51-7.33,11-14.83,21.86-22.22,32.81-29.27,10.55-58.53,8-88.41,1.52-13.95-16.07-27.55-32.46-41.69-48.36,20.9-2.07,41.81-3.07,62.8-3.84,4.61-16.3,9.9-32.38,15.6-48.33-4.34-7.46-8.67-14.93-12.87-22.48"/><path id="Path-86" class="cls-16" d="M547.84,476.66c.07,11.76.27,34.85-4.73,46.22-8,18.17-23.43,21.58-42.78,25.92-4.94,18.47-9.55,36.84-12.46,55.72,7.87,1.41,15.81,2.35,23.74,3.38"/><path id="Path-87" class="cls-16" d="M442.4,524.69c3,5.49,6.27,12.52,12.05,15.62-5.17,17.4-10.07,34.9-14,52.65-12-.83-24-1.86-36-2.34"/><path id="Path-98" class="cls-16" d="M506.39,547.45a48,48,0,0,1-14.25,2.27,68.78,68.78,0,0,1-19.78-3"/><path class="cls-18" d="M529,804c5.37,23.48,9.89,47,13.76,70.79-72.61-3.1-146.44,1.53-219.22-.42,4.36-33.71,4.18-66,6.26-101.13-10.08-39.5-6.88-120.36,13.28-151.29s23.13-22,48.38-32.13c22.95,4.11,49.46,17.35,72.57,20.26,18.48,2.33,57-5.5,66.84-2.91,84.83,22.28,39.9,111.41,9.67,158.77C532.08,776,531.21,791.71,529,804Z"/><path id="Path-93" class="cls-6" d="M573.25,742.8c17.66-55.5,35.81-110.33,53.54-166-3.2-9.57-7.28-32.74-5.29-40,3-11,17.08-50.6,28.43-44.33,7.56,4.19,17.45,38.5,20.66,48.34s-4.46,16.11-6.83,23.79c-5.42,60.27-11.63,120.64-15.75,181C642,794.12,575.53,791.23,573.25,742.8Z"/><path id="Path-93-2" data-name="Path-93" class="cls-16" d="M600.78,658.59c8.62-27.47,17.31-54.12,26-81.92-3.19-9.39-7.27-32.68-5.28-40,3-10.93,17.08-50.61,28.43-44.33,7.56,4.2,17.45,38.5,20.66,48.34s-4.47,16.11-6.83,23.79q-7.1,83.67-14.25,167.44"/><path id="Path-88-2" data-name="Path-88" class="cls-18" d="M591.69,804.51c26.38,2.83,59.8-25.5,60.07-48.7s-60-95.65-77.81-114.06-54-29.41-75.67-10.82-12.52,53.2,1.17,77.38S565.3,801.68,591.69,804.51Z"/><path id="Path-88-3" data-name="Path-88" class="cls-16" d="M491.18,689.86c6.45,14.77,4.27,15.22,14.23,32.56,5.7,9.94,29.53,39.66,40.57,50"/><path id="Path-102" class="cls-17" d="M551,458.8c-3-19.67-2.19-34.51-21.92-49S488.44,385.65,457,394.57,396.38,439,393.93,477c-1.63,25.31,3,53.68,15.07,77.28,3.86,6.35,16.12,10.74,21.46,9.7,35.07-6.79,67-18.53,88.31-47-4.15-12.25-15.81-25.48-2.56-38.47C531.51,463.47,539,498.13,551,458.8Z"/><path id="Path-104" class="cls-16" d="M434.44,569.15c-4.09,1.56-5.93,2.39-10.86,2s-11.2-4.09-15.09-7.73"/><path id="Path-105" class="cls-17" d="M434.42,576c-5.17,2.76-8,3.06-14.2,2.94s-13.05-4-17.44-9.26c-8.32,3.43-11.21,11.57-13.48,19.89-3.42,12.49-3.23,25.54-8.79,37.95-3.71,8.27-11.2,16.4-17.88,22.36,23.21.44,49.31-10.07,59.46-28.72S436.27,594.64,434.42,576Z"/><path class="cls-16" d="M325.13,704c-1.28,15.93-3,33.59,2.81,48.87"/><polyline class="cls-16" points="1020.61 874.55 476.72 874.55 257.48 874.55 222.42 874.55"/></svg>